<svg width="14" height="14" viewBox="0 0 14 14" fill="none" xmlns="http://www.w3.org/2000/svg">
<g clip-path="url(#clip0_6_32)">
<rect width="14" height="14" fill="#171425"/>
<g filter="url(#filter0_f_6_32)">
<ellipse cx="15.2554" cy="13.5218" rx="4.56944" ry="6.2125" fill="#2C00D9"/>
</g>
<g filter="url(#filter1_f_6_32)">
<ellipse cx="9.63108" cy="13.8636" rx="7.43284" ry="2.99712" transform="rotate(9.05178 9.63108 13.8636)" fill="#FF0099"/>
</g>
<g filter="url(#filter2_f_6_32)">
<ellipse cx="13.7108" cy="13.3974" rx="2.99444" ry="1.97361" transform="rotate(27.7951 13.7108 13.3974)" fill="#00FFFF"/>
</g>
<g filter="url(#filter3_f_6_32)">
<ellipse cx="8.81375" cy="14.7292" rx="4.78648" ry="1.96389" transform="rotate(-2.20285 8.81375 14.7292)" fill="#FFF4F5"/>
</g>
<g filter="url(#filter4_f_6_32)">
<ellipse cx="-0.63348" cy="-0.165598" rx="1.09953" ry="4.05591" transform="rotate(-6.53545 -0.63348 -0.165598)" fill="#353197"/>
</g>
<g filter="url(#filter5_f_6_32)">
<ellipse cx="1.45855" cy="3.98868" rx="2.59967" ry="3.08508" fill="#353197"/>
</g>
<g filter="url(#filter6_f_6_32)">
<ellipse cx="12.2455" cy="2.07397" rx="5.02674" ry="5.21552" fill="#FF4161"/>
</g>
<g filter="url(#filter7_f_6_32)">
<ellipse cx="10.8486" cy="1.04383" rx="2.4864" ry="2.01717" transform="rotate(-8.7784 10.8486 1.04383)" fill="#FFB39B"/>
</g>
<g filter="url(#filter8_f_6_32)">
<circle cx="14.7751" cy="4.91096" r="2.16279" fill="#FFAEAE"/>
</g>
<g filter="url(#filter9_d_6_32)">
<path d="M3.94667 11.9453L5.63706 4.31889H5.83362L6.61985 7.98796L5.75499 11.9453H3.94667ZM6.73778 10.8315L7.1309 9.02316H7.60263L6.21363 2.77263H8.03506L10.1972 11.9453H8.36266L8.10058 10.8315H6.73778Z" fill="white"/>
<path d="M3.94667 11.9453L3.81319 11.9157L3.77633 12.082H3.94667V11.9453ZM5.63706 4.31889V4.18217H5.52733L5.50358 4.2893L5.63706 4.31889ZM5.83362 4.31889L5.9673 4.29024L5.94414 4.18217H5.83362V4.31889ZM6.61985 7.98796L6.75341 8.01715L6.75973 7.98824L6.75353 7.95931L6.61985 7.98796ZM5.75499 11.9453V12.082H5.86506L5.88856 11.9745L5.75499 11.9453ZM6.73778 10.8315L6.60418 10.8024L6.56815 10.9682H6.73778V10.8315ZM7.1309 9.02316V8.88644H7.02071L6.9973 8.99412L7.1309 9.02316ZM7.60263 9.02316V9.15988H7.77307L7.7361 8.9935L7.60263 9.02316ZM6.21363 2.77263V2.63592H6.04319L6.08016 2.80229L6.21363 2.77263ZM8.03506 2.77263L8.16813 2.74127L8.1433 2.63592H8.03506V2.77263ZM10.1972 11.9453V12.082H10.3699L10.3303 11.9139L10.1972 11.9453ZM8.36266 11.9453L8.22957 11.9766L8.25437 12.082H8.36266V11.9453ZM8.10058 10.8315L8.23366 10.8002L8.20886 10.6948H8.10058V10.8315ZM4.08015 11.9749L5.77054 4.34847L5.50358 4.2893L3.81319 11.9157L4.08015 11.9749ZM5.63706 4.4556H5.83362V4.18217H5.63706V4.4556ZM5.69993 4.34753L6.48616 8.0166L6.75353 7.95931L5.9673 4.29024L5.69993 4.34753ZM6.48628 7.95877L5.62143 11.9161L5.88856 11.9745L6.75341 8.01715L6.48628 7.95877ZM5.75499 11.8086H3.94667V12.082H5.75499V11.8086ZM6.87138 10.8605L7.26449 9.0522L6.9973 8.99412L6.60418 10.8024L6.87138 10.8605ZM7.1309 9.15988H7.60263V8.88644H7.1309V9.15988ZM7.7361 8.9935L6.34709 2.74298L6.08016 2.80229L7.46917 9.05282L7.7361 8.9935ZM6.21363 2.90935H8.03506V2.63592H6.21363V2.90935ZM7.90199 2.804L10.0641 11.9767L10.3303 11.9139L8.16813 2.74127L7.90199 2.804ZM10.1972 11.8086H8.36266V12.082H10.1972V11.8086ZM8.49574 11.914L8.23366 10.8002L7.96749 10.8628L8.22957 11.9766L8.49574 11.914ZM8.10058 10.6948H6.73778V10.9682H8.10058V10.6948Z" fill="white"/>
</g>
</g>
<defs>
<filter id="filter0_f_6_32" x="6.03748" y="2.66086" width="18.4358" height="21.7219" filterUnits="userSpaceOnUse" color-interpolation-filters="sRGB">
<feFlood flood-opacity="0" result="BackgroundImageFix"/>
<feBlend mode="normal" in="SourceGraphic" in2="BackgroundImageFix" result="shape"/>
<feGaussianBlur stdDeviation="2.32422" result="effect1_foregroundBlur_6_32"/>
</filter>
<filter id="filter1_f_6_32" x="-2.37305" y="6.03186" width="24.0082" height="15.6635" filterUnits="userSpaceOnUse" color-interpolation-filters="sRGB">
<feFlood flood-opacity="0" result="BackgroundImageFix"/>
<feBlend mode="normal" in="SourceGraphic" in2="BackgroundImageFix" result="shape"/>
<feGaussianBlur stdDeviation="2.32422" result="effect1_foregroundBlur_6_32"/>
</filter>
<filter id="filter2_f_6_32" x="6.25732" y="6.51324" width="14.907" height="13.7682" filterUnits="userSpaceOnUse" color-interpolation-filters="sRGB">
<feFlood flood-opacity="0" result="BackgroundImageFix"/>
<feBlend mode="normal" in="SourceGraphic" in2="BackgroundImageFix" result="shape"/>
<feGaussianBlur stdDeviation="2.32422" result="effect1_foregroundBlur_6_32"/>
</filter>
<filter id="filter3_f_6_32" x="-0.618286" y="8.10956" width="18.864" height="13.2392" filterUnits="userSpaceOnUse" color-interpolation-filters="sRGB">
<feFlood flood-opacity="0" result="BackgroundImageFix"/>
<feBlend mode="normal" in="SourceGraphic" in2="BackgroundImageFix" result="shape"/>
<feGaussianBlur stdDeviation="2.32422" result="effect1_foregroundBlur_6_32"/>
</filter>
<filter id="filter4_f_6_32" x="-11.5541" y="-13.9315" width="21.8412" height="27.5318" filterUnits="userSpaceOnUse" color-interpolation-filters="sRGB">
<feFlood flood-opacity="0" result="BackgroundImageFix"/>
<feBlend mode="normal" in="SourceGraphic" in2="BackgroundImageFix" result="shape"/>
<feGaussianBlur stdDeviation="4.86719" result="effect1_foregroundBlur_6_32"/>
</filter>
<filter id="filter5_f_6_32" x="-10.8755" y="-8.83078" width="24.6681" height="25.6389" filterUnits="userSpaceOnUse" color-interpolation-filters="sRGB">
<feFlood flood-opacity="0" result="BackgroundImageFix"/>
<feBlend mode="normal" in="SourceGraphic" in2="BackgroundImageFix" result="shape"/>
<feGaussianBlur stdDeviation="4.86719" result="effect1_foregroundBlur_6_32"/>
</filter>
<filter id="filter6_f_6_32" x="-2.51562" y="-12.8759" width="29.5222" height="29.8998" filterUnits="userSpaceOnUse" color-interpolation-filters="sRGB">
<feFlood flood-opacity="0" result="BackgroundImageFix"/>
<feBlend mode="normal" in="SourceGraphic" in2="BackgroundImageFix" result="shape"/>
<feGaussianBlur stdDeviation="4.86719" result="effect1_foregroundBlur_6_32"/>
</filter>
<filter id="filter7_f_6_32" x="-1.36255" y="-10.7202" width="24.4222" height="23.5282" filterUnits="userSpaceOnUse" color-interpolation-filters="sRGB">
<feFlood flood-opacity="0" result="BackgroundImageFix"/>
<feBlend mode="normal" in="SourceGraphic" in2="BackgroundImageFix" result="shape"/>
<feGaussianBlur stdDeviation="4.86719" result="effect1_foregroundBlur_6_32"/>
</filter>
<filter id="filter8_f_6_32" x="2.87793" y="-6.98621" width="23.7943" height="23.7943" filterUnits="userSpaceOnUse" color-interpolation-filters="sRGB">
<feFlood flood-opacity="0" result="BackgroundImageFix"/>
<feBlend mode="normal" in="SourceGraphic" in2="BackgroundImageFix" result="shape"/>
<feGaussianBlur stdDeviation="4.86719" result="effect1_foregroundBlur_6_32"/>
</filter>
<filter id="filter9_d_6_32" x="3.32985" y="2.31815" width="7.41918" height="10.3414" filterUnits="userSpaceOnUse" color-interpolation-filters="sRGB">
<feFlood flood-opacity="0" result="BackgroundImageFix"/>
<feColorMatrix in="SourceAlpha" type="matrix" values="0 0 0 0 0 0 0 0 0 0 0 0 0 0 0 0 0 0 127 0" result="hardAlpha"/>
<feOffset dx="-0.0324637" dy="0.129855"/>
<feGaussianBlur stdDeviation="0.292173"/>
<feComposite in2="hardAlpha" operator="out"/>
<feColorMatrix type="matrix" values="0 0 0 0 0 0 0 0 0 0 0 0 0 0 0 0 0 0 0.47 0"/>
<feBlend mode="normal" in2="BackgroundImageFix" result="effect1_dropShadow_6_32"/>
<feBlend mode="normal" in="SourceGraphic" in2="effect1_dropShadow_6_32" result="shape"/>
</filter>
<clipPath id="clip0_6_32">
<rect width="14" height="14" fill="white"/>
</clipPath>
</defs>
</svg>
